<?xml version="1.0" standalone="no"?>
<!DOCTYPE svg PUBLIC "-//W3C//DTD SVG 20010904//EN"
 "http://www.w3.org/TR/2001/REC-SVG-20010904/DTD/svg10.dtd">
<svg version="1.0" xmlns="http://www.w3.org/2000/svg"
 width="128.000000pt" height="128.000000pt" viewBox="0 0 128.000000 128.000000"
 preserveAspectRatio="xMidYMid meet">
<metadata>
Created by potrace 1.10, written by Peter Selinger 2001-2011
</metadata>
<g transform="translate(0.000000,128.000000) scale(0.100000,-0.100000)"
fill="#000000" stroke="none">
<path d="M144 1266 c-8 -22 3 -49 19 -43 6 2 12 14 12 27 0 27 -22 39 -31 16z"/>
<path d="M74 1199 c-3 -6 -2 -15 4 -21 15 -15 46 -5 50 15 3 12 -3 17 -22 17
-14 0 -28 -5 -32 -11z"/>
<path d="M192 1193 c2 -12 12 -18 28 -18 16 0 26 6 28 18 3 13 -3 17 -28 17
-25 0 -31 -4 -28 -17z"/>
<path d="M245 1044 c-99 -86 -195 -170 -214 -186 l-33 -29 28 -30 c15 -16 36
-29 47 -29 18 0 19 -10 15 -277 l-3 -278 193 -3 c181 -2 193 -1 190 15 -3 15
-16 18 -86 21 l-82 3 0 149 0 149 98 3 c78 2 97 6 97 18 0 12 -19 15 -115 15
l-115 0 -3 -167 -2 -168 -70 0 -70 0 0 278 1 277 154 132 154 132 75 -51 c67
-45 96 -54 96 -28 0 9 -137 105 -165 116 -9 4 -80 -51 -190 -146 -101 -87
-180 -149 -185 -144 -14 14 367 338 383 327 89 -69 207 -153 216 -153 6 0 11
8 11 18 0 10 -37 43 -91 82 l-91 65 232 3 232 2 98 -85 c54 -47 102 -85 108
-85 5 0 12 6 15 14 3 8 -35 48 -100 105 l-105 91 -271 0 -272 0 -180 -156z"/>
<path d="M140 1136 c0 -23 22 -41 34 -29 3 4 6 17 6 30 0 16 -6 23 -20 23 -14
0 -20 -7 -20 -24z"/>
<path d="M30 1044 c-11 -12 -10 -18 3 -32 16 -15 18 -15 34 0 13 14 14 20 3
32 -7 9 -16 16 -20 16 -4 0 -13 -7 -20 -16z"/>
<path d="M875 999 c-16 -6 -88 -25 -160 -44 l-130 -33 -5 -67 c-6 -74 0 -91
25 -81 13 5 16 17 14 57 -3 58 -1 60 81 79 30 7 93 24 140 37 l84 24 111 -30
c60 -16 129 -35 153 -41 l42 -11 0 -202 c0 -191 -1 -205 -24 -252 -13 -27 -36
-62 -52 -77 -34 -31 -219 -138 -240 -138 -8 0 -14 -9 -14 -20 0 -34 34 -24
155 46 117 67 150 96 188 168 20 38 22 58 25 273 l4 232 -44 11 c-23 6 -100
27 -169 46 -136 37 -139 37 -184 23z"/>
<path d="M793 871 c-81 -21 -103 -30 -103 -43 0 -24 13 -23 133 8 110 28 97
28 270 -17 l39 -10 -4 -159 c-4 -189 -3 -188 -131 -273 -80 -53 -108 -87 -73
-87 8 0 56 28 107 63 129 86 131 90 131 309 0 136 -2 174 -13 180 -24 13 -210
58 -232 56 -12 0 -68 -13 -124 -27z"/>
<path d="M548 692 c-46 -44 -47 -72 -2 -72 39 0 66 -27 53 -51 -5 -11 -7 -24
-3 -30 3 -6 -1 -18 -9 -27 -8 -9 -18 -33 -22 -52 -4 -19 -18 -54 -31 -77 -23
-39 -24 -51 -24 -195 0 -84 4 -159 9 -166 6 -10 46 -13 161 -14 139 -1 155 1
167 18 11 15 13 52 11 166 l-3 147 -52 53 c-41 42 -53 61 -53 85 0 17 -4 33
-9 35 -4 2 -11 24 -15 51 -6 38 -4 48 8 53 18 7 21 30 5 39 -12 8 -59 -33 -59
-52 0 -22 -29 -15 -46 12 -9 14 -27 28 -40 31 -28 7 -31 20 -6 32 25 13 212
24 212 12 0 -6 -9 -10 -20 -10 -37 0 -22 -106 23 -165 12 -16 18 -17 28 -8 10
10 9 21 -8 55 -34 70 -36 82 -10 93 16 7 22 19 22 40 l0 30 -123 3 -122 3 -42
-39z m142 -147 c0 -10 -10 -15 -30 -15 -20 0 -30 5 -30 15 0 10 10 15 30 15
20 0 30 -5 30 -15z m19 -58 c6 -8 8 -16 5 -20 -12 -12 11 -53 59 -104 l50 -53
-90 0 c-121 0 -124 -3 -125 -113 -2 -118 3 -122 122 -118 85 2 90 1 90 -18 0
-20 -5 -21 -135 -21 l-135 0 0 148 c1 112 4 152 15 166 8 10 22 42 31 70 9 28
21 57 27 64 13 16 72 15 86 -1z m111 -297 l0 -81 -87 3 -88 3 -3 64 c-2 35 -1
70 2 77 4 10 28 14 91 14 l85 0 0 -80z"/>
<path d="M1184 236 c-8 -22 3 -49 19 -43 6 2 12 14 12 27 0 27 -22 39 -31 16z"/>
<path d="M1132 173 c2 -10 12 -18 23 -18 11 0 21 8 23 18 3 13 -3 17 -23 17
-20 0 -26 -4 -23 -17z"/>
<path d="M1225 180 c-4 -7 -3 -16 3 -22 13 -13 54 0 49 15 -5 16 -43 21 -52 7z"/>
<path d="M1184 135 c-7 -18 3 -35 22 -35 8 0 14 10 14 25 0 27 -27 35 -36 10z"/>
<path d="M1057 104 c-14 -15 -6 -34 14 -34 14 0 19 5 17 17 -3 18 -20 27 -31
17z"/>
</g>
</svg>
