<?xml version="1.0" standalone="no"?>
<!DOCTYPE svg PUBLIC "-//W3C//DTD SVG 20010904//EN"
 "http://www.w3.org/TR/2001/REC-SVG-20010904/DTD/svg10.dtd">
<svg version="1.0" xmlns="http://www.w3.org/2000/svg"
 width="128.000000pt" height="128.000000pt" viewBox="0 0 128.000000 128.000000"
 preserveAspectRatio="xMidYMid meet">
<metadata>
Created by potrace 1.10, written by Peter Selinger 2001-2011
</metadata>
<g transform="translate(0.000000,128.000000) scale(0.100000,-0.100000)"
fill="#000000" stroke="none">
<path d="M910 1252 c-13 -11 -20 -24 -16 -30 10 -16 31 -15 46 3 18 22 55 18
87 -9 24 -21 29 -22 49 -10 27 18 52 9 60 -21 3 -13 19 -29 35 -35 31 -13 44
-39 35 -75 -4 -14 0 -27 9 -35 23 -19 18 -46 -12 -68 l-27 -19 22 -28 c12 -15
22 -35 22 -44 0 -28 -28 -58 -60 -64 -30 -7 -41 -31 -17 -40 17 -6 58 11 84
35 28 26 37 66 23 102 -8 21 -7 32 5 49 17 24 20 73 5 82 -5 3 -10 23 -10 44
0 42 -28 86 -60 96 -11 4 -20 12 -20 19 0 27 -39 49 -84 48 -25 -1 -48 3 -51
8 -11 18 -101 11 -125 -8z"/>
<path d="M265 1222 c-27 -15 -50 -31 -50 -37 0 -5 16 -17 34 -26 41 -19 70
-66 47 -75 -8 -3 -18 -18 -21 -34 -3 -16 -12 -31 -20 -33 -7 -3 -30 -31 -50
-62 -21 -30 -46 -60 -56 -65 -26 -15 -33 -30 -90 -210 -41 -127 -49 -166 -42
-183 14 -30 310 -125 340 -109 14 8 34 58 72 179 l53 169 -37 72 c-34 64 -37
76 -28 106 6 20 7 40 1 49 -5 9 -5 29 -1 44 4 15 6 36 4 45 -1 11 8 22 23 30
14 6 26 19 26 30 0 21 2 21 -39 7 -17 -6 -36 -20 -42 -30 -8 -15 -14 -17 -29
-9 -11 6 -20 20 -20 31 0 11 -13 34 -29 50 -29 29 -29 29 -9 40 25 13 67 8
170 -24 78 -23 117 -44 66 -35 -37 7 -48 -9 -55 -74 -7 -69 12 -141 35 -136
11 2 16 11 14 23 -2 11 -6 48 -9 83 l-5 62 30 0 c31 0 42 14 42 55 0 22 -11
27 -114 59 -63 20 -124 36 -137 36 -13 0 -46 -13 -74 -28z m115 -198 c-1 -11
-50 -8 -63 5 -5 5 -6 14 -3 20 8 12 68 -11 66 -25z m-8 -61 c15 -16 16 -23 6
-49 -10 -28 -8 -39 25 -109 21 -43 35 -80 32 -83 -2 -3 -42 7 -88 21 -92 30
-129 33 -144 15 -13 -16 -63 -167 -63 -189 0 -27 35 -50 127 -79 84 -28 97
-39 74 -63 -5 -5 -64 10 -133 32 -68 23 -129 41 -135 41 -26 0 -22 26 26 178
43 136 55 162 86 192 20 19 46 51 58 70 11 19 26 39 31 43 17 12 78 0 98 -20z
m18 -273 l36 -10 -28 -82 c-15 -46 -29 -86 -30 -90 -3 -8 -168 40 -182 53 -10
9 27 143 46 166 7 9 23 7 66 -8 31 -11 72 -24 92 -29z"/>
<path d="M723 1216 c-51 -7 -95 -15 -99 -19 -13 -12 6 -38 23 -33 10 3 62 10
116 17 81 10 97 14 95 28 -4 20 -22 21 -135 7z"/>
<path d="M645 1120 c-12 -19 6 -30 107 -60 72 -23 103 -29 111 -21 17 17 1 26
-105 60 -110 35 -105 34 -113 21z"/>
<path d="M586 1072 c-7 -11 73 -102 90 -102 26 0 14 36 -24 73 -37 36 -56 45
-66 29z"/>
<path d="M1095 1060 c-3 -5 1 -21 10 -34 13 -19 14 -29 5 -45 -6 -12 -16 -21
-23 -22 -7 -1 -21 -2 -32 -3 -27 -2 -25 -30 3 -34 27 -4 28 -14 2 -37 -22 -20
-18 -35 9 -35 24 0 44 24 44 55 0 13 8 32 18 41 25 23 25 85 1 107 -21 20 -28
21 -37 7z"/>
<path d="M773 953 c-16 -6 -17 -43 -2 -43 6 0 19 5 30 10 16 9 28 3 74 -41 43
-40 58 -50 67 -41 9 9 0 25 -42 67 -54 54 -84 66 -127 48z"/>
<path d="M710 820 c0 -22 9 -41 30 -62 28 -27 36 -30 75 -25 25 2 45 1 45 -4
0 -11 37 -12 44 -1 3 5 -8 21 -23 36 -18 18 -31 24 -35 17 -8 -13 -55 -14 -74
-2 -7 4 -16 21 -21 37 -11 42 -41 45 -41 4z"/>
<path d="M583 766 c-51 -51 -67 -86 -40 -86 19 0 130 116 123 129 -13 20 -31
11 -83 -43z"/>
<path d="M1071 781 c-7 -5 -22 -6 -33 -3 -27 7 -72 -36 -56 -55 9 -11 15 -11
35 2 13 9 27 14 31 11 13 -8 74 23 70 36 -6 16 -29 21 -47 9z"/>
<path d="M1084 689 c-4 -6 27 -44 70 -88 42 -42 76 -83 76 -91 0 -8 -92 -107
-205 -220 -187 -187 -207 -204 -225 -192 -28 17 -40 15 -40 -8 0 -24 42 -44
74 -34 26 8 402 379 422 416 8 15 14 35 14 44 0 16 -156 184 -171 184 -4 0
-11 -5 -15 -11z"/>
<path d="M729 573 c-60 -59 -109 -102 -109 -96 0 6 6 29 14 51 13 35 12 43 0
61 -17 24 -66 29 -81 9 -28 -37 -43 -108 -43 -203 l0 -100 -125 -125 c-69 -69
-125 -130 -125 -137 0 -36 48 -1 163 117 l127 129 0 104 c0 128 29 229 54 188
3 -5 -1 -25 -9 -44 -11 -28 -12 -42 -3 -69 6 -18 14 -37 19 -42 4 -5 59 45
122 110 84 86 118 116 126 108 9 -8 -9 -31 -64 -85 -72 -70 -90 -106 -59 -116
6 -2 51 37 99 87 80 81 115 106 115 82 0 -5 -40 -50 -89 -101 -85 -87 -103
-121 -65 -121 7 0 47 35 88 78 60 62 77 75 87 64 11 -10 -2 -27 -65 -91 -54
-55 -77 -84 -73 -95 10 -26 29 -19 84 36 29 28 56 48 60 44 4 -4 -49 -63 -118
-132 -112 -110 -129 -124 -160 -124 -29 0 -45 -10 -104 -70 -57 -57 -67 -72
-55 -80 11 -7 30 5 75 50 39 39 69 60 84 60 47 0 94 35 206 156 63 68 115 128
115 134 0 5 -9 19 -20 30 -19 19 -19 22 -5 36 21 21 19 61 -4 76 -15 9 -17 16
-10 30 19 35 -25 77 -64 62 -9 -3 -24 3 -36 15 -12 12 -26 21 -32 21 -7 0 -61
-48 -120 -107z"/>
<path d="M410 437 c0 -16 42 -57 58 -57 18 0 14 35 -6 53 -22 20 -52 22 -52 4z"/>
</g>
</svg>
