<?xml version="1.0" standalone="no"?>
<!DOCTYPE svg PUBLIC "-//W3C//DTD SVG 20010904//EN"
 "http://www.w3.org/TR/2001/REC-SVG-20010904/DTD/svg10.dtd">
<svg version="1.0" xmlns="http://www.w3.org/2000/svg"
 width="128.000000pt" height="128.000000pt" viewBox="0 0 128.000000 128.000000"
 preserveAspectRatio="xMidYMid meet">
<metadata>
Created by potrace 1.10, written by Peter Selinger 2001-2011
</metadata>
<g transform="translate(0.000000,128.000000) scale(0.100000,-0.100000)"
fill="#000000" stroke="none">
<path d="M300 1173 c-107 -37 -190 -129 -212 -235 -11 -51 -14 -57 -33 -52
-33 8 -47 -17 -43 -78 3 -46 6 -53 26 -56 19 -3 22 -9 22 -53 0 -106 31 -475
42 -497 18 -34 69 -43 233 -40 133 3 150 5 153 21 3 16 -10 17 -160 17 -116 0
-169 4 -181 13 -13 10 -19 53 -31 232 -9 121 -18 239 -21 263 l-5 42 309 0
309 0 -4 -37 c-14 -128 -21 -289 -13 -297 21 -23 32 20 42 173 9 137 13 161
27 161 27 0 40 22 40 66 0 50 -22 78 -54 70 -20 -5 -23 1 -34 52 -37 181 -239
296 -412 235z m196 -40 c66 -22 145 -101 167 -167 30 -88 52 -81 -263 -81
-315 0 -293 -7 -263 81 21 63 102 145 163 167 60 21 135 21 196 0z m264 -313
l0 -30 -360 0 -360 0 0 30 0 30 360 0 360 0 0 -30z"/>
<path d="M856 1154 c-14 -13 -16 -63 -16 -395 l0 -379 -112 0 c-124 0 -158
-10 -170 -50 -22 -77 -49 -220 -43 -229 10 -17 751 -15 758 2 2 6 -4 46 -14
87 -10 41 -18 89 -19 105 -2 66 -40 85 -172 85 l-103 0 0 381 c0 365 -1 381
-19 395 -26 19 -71 18 -90 -2z m72 -401 l2 -373 -27 0 -28 0 2 372 c2 205 3
374 3 376 0 2 10 2 23 0 l22 -3 3 -372z m266 -435 c8 -12 13 -25 10 -30 -3 -4
-144 -8 -315 -8 -322 0 -329 1 -292 42 15 17 38 18 299 18 279 0 283 0 298
-22z m-581 -107 c-3 -24 -1 -41 7 -46 16 -10 22 -1 29 42 5 29 11 39 28 41 19
3 22 -2 25 -40 2 -30 7 -43 18 -43 10 0 16 13 18 43 3 37 6 42 28 42 22 0 25
-4 24 -32 -3 -51 -1 -58 15 -58 11 0 15 12 15 45 0 41 2 45 24 45 22 0 25 -5
28 -42 2 -30 8 -43 18 -43 10 0 16 13 18 43 3 33 7 42 22 42 15 0 19 -9 22
-42 2 -30 8 -43 18 -43 10 0 16 13 18 43 3 37 6 42 27 42 21 0 24 -5 27 -42 2
-30 8 -43 18 -43 11 0 15 11 16 40 0 35 3 40 24 40 21 0 26 -6 31 -38 7 -43
13 -52 29 -42 8 5 10 22 7 46 -5 35 -3 39 17 39 19 0 25 -8 34 -51 7 -28 12
-55 12 -60 0 -5 -139 -9 -340 -9 -187 0 -340 2 -340 4 0 1 4 16 9 32 5 16 12
41 15 57 4 18 13 27 25 27 16 0 18 -6 14 -39z"/>
<path d="M155 573 c7 -119 15 -147 36 -126 8 8 9 47 4 127 -7 106 -9 116 -27
116 -19 0 -19 -5 -13 -117z"/>
</g>
</svg>
