<?xml version="1.0" standalone="no"?>
<!DOCTYPE svg PUBLIC "-//W3C//DTD SVG 20010904//EN"
 "http://www.w3.org/TR/2001/REC-SVG-20010904/DTD/svg10.dtd">
<svg version="1.0" xmlns="http://www.w3.org/2000/svg"
 width="128.000000pt" height="128.000000pt" viewBox="0 0 128.000000 128.000000"
 preserveAspectRatio="xMidYMid meet">
<metadata>
Created by potrace 1.10, written by Peter Selinger 2001-2011
</metadata>
<g transform="translate(0.000000,128.000000) scale(0.100000,-0.100000)"
fill="#000000" stroke="none">
<path d="M293 1239 c-56 -28 -73 -66 -73 -166 l0 -79 -40 -39 c-32 -31 -46
-57 -66 -120 -39 -122 -94 -346 -94 -380 0 -44 25 -75 60 -75 37 0 64 35 87
109 26 87 36 86 29 -4 -3 -44 -8 -153 -12 -241 -8 -198 1 -224 74 -224 62 0
91 54 109 203 3 26 9 47 13 47 4 0 10 -21 13 -47 18 -151 47 -203 111 -203 26
0 40 7 56 27 21 27 22 34 16 223 -4 107 -9 232 -12 278 l-6 83 55 -55 c71 -72
154 -96 205 -60 39 27 28 58 -36 108 -71 54 -82 70 -112 161 -32 98 -53 137
-94 173 -36 31 -36 32 -36 113 0 103 -17 141 -74 169 -54 26 -120 26 -173 -1z
m157 -34 c42 -22 50 -43 50 -135 l0 -81 -35 -15 c-44 -18 -126 -18 -170 0
l-35 15 0 81 c0 45 5 90 10 100 25 46 122 65 180 35z m-196 -254 c3 -5 28 -14
56 -21 l50 -12 2 -216 c3 -185 5 -217 18 -217 13 0 15 32 18 217 l2 216 50 12
c28 7 53 16 56 21 3 5 18 -1 33 -12 l28 -21 -21 -51 c-19 -48 -21 -69 -19
-247 1 -107 4 -255 8 -328 l7 -132 -50 0 c-58 0 -50 -14 -78 150 -8 52 -20 99
-25 104 -17 18 -27 -7 -43 -104 -28 -164 -20 -150 -78 -150 l-50 0 7 128 c3
70 7 217 8 327 2 183 0 204 -19 252 l-21 51 21 21 c22 23 32 26 40 12z m423
-279 c11 -15 43 -45 71 -67 28 -22 51 -46 51 -54 1 -22 -83 -7 -130 23 -41 27
-95 101 -106 146 -6 22 12 134 24 154 4 5 21 -32 38 -83 18 -51 41 -105 52
-119z m-489 147 c17 -73 15 -90 -19 -203 -44 -144 -68 -198 -88 -194 -33 6
-24 69 51 336 17 61 34 112 38 112 4 0 12 -23 18 -51z m122 -707 c0 -4 -7 -18
-16 -30 -23 -34 -68 -27 -72 11 -3 26 -2 27 42 27 25 0 46 -3 46 -8z m228 -19
c-4 -38 -49 -45 -72 -11 -24 34 -20 38 30 38 44 0 45 -1 42 -27z"/>
<path d="M304 1147 c-3 -8 -4 -43 -2 -78 l3 -64 85 0 85 0 0 75 0 75 -83 3
c-63 2 -84 0 -88 -11z m136 -67 l0 -40 -50 0 -50 0 0 40 0 40 50 0 50 0 0 -40z"/>
<path d="M1194 1029 c-3 -6 -2 -15 4 -21 15 -15 46 -5 50 15 3 12 -3 17 -22
17 -14 0 -28 -5 -32 -11z"/>
<path d="M1138 1013 c-22 -6 -23 -32 -2 -40 19 -7 49 20 40 36 -7 11 -10 12
-38 4z"/>
<path d="M1050 975 c-17 -21 -2 -36 28 -28 14 3 22 12 20 22 -4 22 -32 25 -48
6z"/>
<path d="M977 953 c-14 -13 -6 -33 12 -33 21 0 45 23 34 33 -8 9 -38 9 -46 0z"/>
<path d="M867 883 c-9 -11 -33 -63 -53 -116 -28 -74 -34 -101 -26 -109 17 -17
24 -6 67 104 30 76 43 98 59 100 12 2 21 10 21 18 0 22 -48 24 -68 3z"/>
<path d="M965 890 c-4 -7 -3 -16 3 -22 14 -14 47 -6 47 12 0 18 -40 26 -50 10z"/>
<path d="M1045 890 c-4 -7 -3 -16 3 -22 14 -14 47 -6 47 12 0 18 -40 26 -50
10z"/>
<path d="M1125 890 c-4 -7 -3 -16 3 -22 14 -14 47 -6 47 12 0 18 -40 26 -50
10z"/>
<path d="M1205 890 c-4 -7 -3 -16 3 -22 14 -14 47 -6 47 12 0 18 -40 26 -50
10z"/>
<path d="M970 825 c0 -19 24 -29 46 -21 13 5 14 9 4 21 -16 20 -50 19 -50 0z"/>
<path d="M1045 810 c-10 -16 20 -44 39 -37 17 7 22 37 7 37 -5 0 -16 3 -24 6
-8 3 -18 0 -22 -6z"/>
<path d="M1127 783 c-14 -13 -6 -31 15 -37 30 -7 45 8 28 29 -13 16 -32 20
-43 8z"/>
<path d="M1195 751 c-10 -17 4 -31 31 -31 19 0 25 5 22 18 -4 19 -43 29 -53
13z"/>
<path d="M665 369 c-47 -144 -52 -187 -31 -243 27 -69 96 -88 145 -38 22 22
29 40 34 90 8 73 12 82 36 82 16 0 19 -13 25 -112 4 -62 10 -116 12 -120 9
-14 224 -10 229 5 2 6 9 81 14 165 6 85 15 160 21 167 6 7 10 35 8 62 l-3 48
-155 0 -155 0 -3 -48 c-2 -27 1 -54 6 -60 5 -7 12 -24 16 -39 6 -26 4 -28 -24
-28 -38 0 -56 -28 -64 -104 -9 -80 -20 -98 -59 -94 -68 7 -72 84 -13 257 19
57 33 108 30 113 -17 27 -36 0 -69 -103z m455 51 c0 -19 -7 -20 -120 -20 -113
0 -120 1 -120 20 0 19 7 20 120 20 113 0 120 -1 120 -20z m-25 -147 c-3 -49
-8 -116 -11 -151 l-6 -62 -78 0 -78 0 -6 62 c-3 35 -8 102 -11 151 l-6 87 101
0 101 0 -6 -87z"/>
</g>
</svg>
