<?xml version="1.0" standalone="no"?>
<!DOCTYPE svg PUBLIC "-//W3C//DTD SVG 20010904//EN"
 "http://www.w3.org/TR/2001/REC-SVG-20010904/DTD/svg10.dtd">
<svg version="1.0" xmlns="http://www.w3.org/2000/svg"
 width="128.000000pt" height="128.000000pt" viewBox="0 0 128.000000 128.000000"
 preserveAspectRatio="xMidYMid meet">
<metadata>
Created by potrace 1.10, written by Peter Selinger 2001-2011
</metadata>
<g transform="translate(0.000000,128.000000) scale(0.100000,-0.100000)"
fill="#000000" stroke="none">
<path d="M437 1274 c-4 -4 -7 -29 -7 -56 0 -36 -4 -48 -15 -48 -11 0 -15 11
-15 40 0 33 -3 40 -20 40 -17 0 -20 -7 -20 -40 l0 -39 -112 -3 -113 -3 0 -247
0 -247 -55 -3 -55 -3 -3 -277 -2 -278 22 -5 c13 -3 113 -4 223 -3 181 3 200 5
203 20 3 15 -4 18 -50 18 l-53 0 0 67 0 68 50 5 c37 4 51 9 53 22 3 16 -5 18
-67 18 l-71 0 0 -90 0 -90 -135 0 -135 0 0 245 0 244 78 3 c60 2 77 6 77 18 0
8 -10 16 -23 18 l-22 3 2 231 3 232 33 0 33 1 2 -380 c2 -330 4 -380 17 -380
13 0 15 50 18 380 l2 380 175 0 174 0 3 -75 c2 -59 6 -75 18 -75 12 0 16 18
18 93 l3 92 -35 0 c-32 0 -35 3 -38 33 l-3 32 -62 -3 c-57 -4 -62 -2 -65 19
-3 23 -19 35 -31 23z m128 -89 c0 -11 -69 -19 -92 -11 -8 3 -11 11 -8 16 8 14
100 9 100 -5z"/>
<path d="M325 1080 c-15 -24 12 -30 131 -30 117 0 124 1 124 20 0 19 -7 20
-124 20 -73 0 -127 -4 -131 -10z"/>
<path d="M325 1000 c-15 -24 12 -30 131 -30 117 0 124 1 124 20 0 19 -7 20
-124 20 -73 0 -127 -4 -131 -10z"/>
<path d="M865 994 c-34 -13 -158 -45 -257 -68 -28 -6 -28 -8 -28 -82 0 -67 2
-75 18 -72 14 3 17 14 17 58 l0 55 103 27 c56 14 123 33 148 42 45 15 49 15
167 -18 67 -19 137 -37 155 -41 l32 -7 0 -171 c0 -208 -4 -233 -44 -300 -27
-45 -46 -61 -136 -114 -58 -35 -113 -63 -123 -63 -22 0 -34 -29 -17 -40 18
-11 47 1 155 65 108 63 155 112 184 189 19 51 21 77 21 259 l0 202 -167 45
c-93 25 -172 46 -178 47 -5 1 -28 -5 -50 -13z"/>
<path d="M325 919 c-11 -17 0 -20 82 -22 66 0 78 2 81 16 3 15 -7 17 -77 17
-46 0 -83 -5 -86 -11z"/>
<path d="M791 870 c-100 -25 -131 -43 -97 -56 8 -3 62 6 120 20 l104 27 94
-24 93 -23 3 -155 c3 -188 0 -195 -123 -274 -47 -30 -85 -62 -85 -70 0 -25 21
-17 116 44 128 83 134 96 134 313 0 150 -2 167 -17 172 -68 21 -211 56 -223
54 -8 0 -62 -13 -119 -28z"/>
<path d="M325 850 c-14 -22 9 -30 86 -30 71 0 80 2 77 18 -3 14 -16 17 -80 20
-45 2 -79 -1 -83 -8z"/>
<path d="M325 770 c-14 -22 10 -30 86 -30 72 0 79 2 79 20 0 18 -7 20 -79 20
-44 0 -83 -4 -86 -10z"/>
<path d="M565 701 c-42 -26 -78 -67 -70 -80 3 -6 18 -11 32 -11 42 0 62 -25
56 -68 -3 -21 -12 -44 -19 -53 -8 -8 -14 -25 -14 -36 0 -11 -11 -41 -25 -67
-25 -46 -25 -53 -23 -209 l3 -162 160 0 160 0 3 159 3 159 -51 53 c-37 39 -50
60 -50 83 0 16 -4 32 -9 35 -4 3 -11 24 -15 47 -5 33 -3 44 11 54 16 12 19 9
30 -28 18 -57 48 -96 64 -80 9 9 5 24 -15 64 -31 63 -32 79 -6 79 24 0 38 44
20 65 -20 24 -205 21 -245 -4z m198 -29 c-14 -2 -23 -10 -23 -21 0 -14 -6 -17
-25 -13 -20 3 -28 -2 -42 -27 -22 -38 -28 -38 -61 -3 -15 16 -34 31 -42 34
-12 5 -13 8 -2 19 8 9 46 16 105 19 85 5 143 -1 90 -8z m-89 -131 c3 -5 -8
-11 -25 -13 -29 -5 -45 3 -32 16 9 9 51 7 57 -3z m12 -63 c4 -7 9 -22 10 -35
3 -30 37 -77 75 -103 16 -12 27 -25 24 -29 -2 -5 -38 -6 -79 -3 -59 4 -81 1
-101 -12 -24 -16 -25 -21 -25 -105 0 -61 4 -92 13 -99 7 -6 53 -12 102 -14 77
-3 90 -6 93 -21 3 -16 -6 -17 -128 -15 l-132 3 0 141 c1 128 3 145 26 195 14
30 26 61 26 70 0 8 5 20 12 27 16 16 75 16 84 0z m106 -288 l0 -75 -81 -3 -81
-3 0 74 c0 40 3 77 7 81 4 4 40 5 81 4 l74 -3 0 -75z"/>
<path d="M330 572 c-5 -2 -10 -10 -10 -18 0 -11 18 -14 86 -14 75 0 85 2 82
17 -2 14 -16 17 -75 17 -40 1 -77 0 -83 -2z"/>
<path d="M105 560 c-12 -20 11 -31 56 -28 31 2 44 7 44 18 0 19 -89 27 -100
10z"/>
<path d="M325 480 c-14 -22 9 -30 86 -30 71 0 80 2 77 18 -3 14 -16 17 -80 20
-45 2 -79 -1 -83 -8z"/>
<path d="M106 471 c-10 -15 18 -28 59 -27 29 1 41 6 43 19 3 14 -4 17 -47 17
-27 0 -52 -4 -55 -9z"/>
<path d="M105 390 c-12 -20 11 -31 56 -28 31 2 44 7 44 18 0 19 -89 27 -100
10z"/>
<path d="M105 310 c-12 -20 11 -31 56 -28 31 2 44 7 44 18 0 19 -89 27 -100
10z"/>
<path d="M1154 225 c-7 -18 3 -35 22 -35 8 0 14 10 14 25 0 27 -27 35 -36 10z"/>
<path d="M1105 180 c-9 -15 4 -30 26 -30 12 0 19 7 19 20 0 21 -33 29 -45 10z"/>
<path d="M1195 180 c-9 -15 3 -30 25 -30 18 0 34 23 23 34 -10 10 -41 7 -48
-4z"/>
<path d="M1154 135 c-7 -18 3 -35 22 -35 8 0 14 10 14 25 0 27 -27 35 -36 10z"/>
<path d="M1025 101 c-8 -15 3 -31 21 -31 9 0 14 7 12 17 -4 20 -24 28 -33 14z"/>
</g>
</svg>
