<?xml version="1.0" standalone="no"?>
<!DOCTYPE svg PUBLIC "-//W3C//DTD SVG 20010904//EN"
 "http://www.w3.org/TR/2001/REC-SVG-20010904/DTD/svg10.dtd">
<svg version="1.0" xmlns="http://www.w3.org/2000/svg"
 width="128.000000pt" height="128.000000pt" viewBox="0 0 128.000000 128.000000"
 preserveAspectRatio="xMidYMid meet">
<metadata>
Created by potrace 1.10, written by Peter Selinger 2001-2011
</metadata>
<g transform="translate(0.000000,128.000000) scale(0.100000,-0.100000)"
fill="#000000" stroke="none">
<path d="M109 1269 c-6 -3 -8 -66 -7 -145 3 -116 6 -139 18 -139 12 0 15 22
18 128 l3 127 534 0 535 0 0 -575 0 -576 -322 1 c-178 0 -329 1 -335 0 -14 0
-19 -30 -5 -30 4 0 162 0 352 -1 l345 0 0 606 0 605 -563 3 c-310 1 -568 -1
-573 -4z"/>
<path d="M382 1163 c2 -17 9 -28 18 -28 9 0 16 11 18 28 3 22 -1 27 -18 27
-17 0 -21 -5 -18 -27z"/>
<path d="M199 1171 c-4 -66 0 -164 8 -172 21 -21 34 18 31 97 -3 66 -6 79 -20
82 -10 2 -18 -1 -19 -7z"/>
<path d="M565 1170 c-16 -27 15 -30 281 -30 l274 0 0 -472 0 -473 -266 3
c-147 2 -277 1 -290 -2 -23 -6 -34 -36 -14 -36 13 0 587 0 600 0 7 0 9 171 8
507 l-3 508 -292 3 c-189 1 -294 -1 -298 -8z"/>
<path d="M312 1103 c2 -12 12 -18 28 -18 36 0 33 29 -3 33 -23 3 -28 0 -25
-15z"/>
<path d="M432 1103 c2 -12 12 -18 28 -18 16 0 26 6 28 18 3 13 -3 17 -28 17
-25 0 -31 -4 -28 -17z"/>
<path d="M382 1043 c4 -36 33 -39 33 -3 0 16 -6 26 -18 28 -15 3 -18 -2 -15
-25z"/>
<path d="M104 891 c-79 -57 -95 -101 -39 -101 47 0 105 -44 84 -64 -5 -6 -9
-27 -9 -47 0 -20 -6 -42 -14 -48 -8 -7 -17 -27 -20 -45 -4 -18 -22 -64 -41
-103 l-34 -70 1 -188 c1 -168 3 -190 20 -207 16 -16 37 -18 197 -18 150 0 182
3 195 16 13 13 16 46 16 206 l0 191 -65 68 c-57 61 -65 74 -65 108 0 22 -6 44
-15 51 -8 7 -15 26 -15 42 0 16 -5 38 -10 48 -9 16 -6 24 15 42 29 25 33 48 7
48 -23 0 -62 -40 -62 -63 0 -30 -39 -19 -79 23 -23 25 -47 40 -62 40 -23 1
-23 1 9 30 32 30 33 30 157 30 77 0 125 -4 125 -10 0 -5 -11 -10 -25 -10 -24
0 -25 -3 -25 -52 0 -89 60 -192 92 -160 7 7 4 19 -11 38 -18 23 -51 110 -51
135 0 4 12 9 28 11 21 2 28 9 30 31 6 52 -7 57 -158 57 -135 0 -138 0 -176
-29z m156 -203 c0 -14 -9 -18 -40 -18 -31 0 -40 4 -40 18 0 13 9 17 40 17 31
0 40 -4 40 -17z m18 -70 c7 -7 12 -23 12 -35 0 -36 23 -73 79 -128 28 -27 51
-55 51 -62 0 -10 -27 -13 -112 -13 -101 0 -114 -2 -135 -22 -21 -20 -23 -30
-23 -120 0 -92 2 -101 25 -123 23 -24 31 -25 135 -25 l110 0 0 -25 0 -25 -175
0 -175 0 0 183 0 182 35 69 c19 37 35 80 35 94 0 41 27 62 80 62 25 0 51 -5
58 -12z m142 -383 l0 -105 -109 0 c-90 0 -110 3 -115 16 -8 21 -8 179 1 187 3
4 55 7 115 7 l108 0 0 -105z"/>
<path d="M732 671 c-20 -12 -10 -46 13 -46 14 0 20 7 20 24 0 27 -13 35 -33
22z"/>
<path d="M604 595 c-8 -21 3 -48 19 -43 19 7 22 58 2 58 -8 0 -18 -7 -21 -15z"/>
<path d="M532 523 c2 -12 12 -18 28 -18 36 0 33 29 -3 33 -23 3 -28 0 -25 -15z"/>
<path d="M655 530 c-10 -16 4 -30 31 -30 17 0 24 5 24 20 0 15 -7 20 -24 20
-14 0 -28 -4 -31 -10z"/>
<path d="M604 476 c-9 -22 2 -46 21 -46 12 0 15 8 13 27 -3 30 -25 42 -34 19z"/>
</g>
</svg>
